<svg width="20" height="20" viewBox="0 0 20 20" fill="none" xmlns="http://www.w3.org/2000/svg">
<g clip-path="url(#clip0_116_11)">
<path d="M11.9774 19.4566C12.1631 19.4571 12.347 19.4208 12.5185 19.3497C12.6899 19.2786 12.8455 19.1741 12.9763 19.0423L19.0426 12.9768C19.1739 12.8456 19.278 12.6899 19.3491 12.5184C19.4201 12.3469 19.4566 12.1632 19.4566 11.9775C19.4566 11.792 19.4201 11.6082 19.3491 11.4368C19.278 11.2653 19.1739 11.1095 19.0426 10.9783L16.5319 8.46749L14.6092 3.34521C14.5224 3.11241 14.3759 2.9065 14.1846 2.7481C13.9932 2.5897 13.7635 2.48435 13.5186 2.44262L1.20299 0.390177C1.10174 0.373241 0.998029 0.378566 0.899064 0.405784C0.800094 0.433 0.708244 0.481455 0.629903 0.547776C0.551562 0.614097 0.488613 0.696691 0.445436 0.789811C0.402258 0.882929 0.379887 0.984337 0.379883 1.08698C0.380047 1.12604 0.383297 1.16502 0.389598 1.20356L2.44205 13.5182C2.48286 13.7628 2.58736 13.9924 2.74502 14.1839C2.90267 14.3754 3.10795 14.522 3.34021 14.6089L8.46249 16.5315L10.9777 19.0423C11.1086 19.1742 11.2644 19.2788 11.4359 19.3498C11.6076 19.4209 11.7917 19.4572 11.9774 19.4566ZM3.83566 13.286L2.14619 3.14649L6.32968 7.32999C6.04728 7.8525 5.96239 8.45921 6.09053 9.03919C6.21866 9.6191 6.55125 10.1336 7.02749 10.4885C7.50373 10.8435 8.09181 11.015 8.68419 10.9721C9.27655 10.929 9.83368 10.6742 10.2537 10.2542C10.6737 9.83423 10.9285 9.27719 10.9714 8.68477C11.0145 8.09239 10.8428 7.50431 10.4879 7.02807C10.133 6.55182 9.61855 6.21923 9.03855 6.0911C8.45863 5.96297 7.85192 6.04787 7.32941 6.33026L3.14415 2.14676L13.2863 3.83624L15.1029 8.68209L8.68152 15.1026L3.83566 13.286ZM8.50488 7.44568C8.71446 7.44568 8.91942 7.50783 9.09368 7.62429C9.26794 7.74074 9.40377 7.90625 9.48403 8.0999C9.5642 8.29356 9.58516 8.50664 9.54429 8.71223C9.50342 8.9178 9.40246 9.10667 9.25429 9.25484C9.10603 9.40302 8.91725 9.50397 8.71159 9.54484C8.50605 9.5858 8.29297 9.56476 8.09932 9.48458C7.90567 9.40432 7.74016 9.26849 7.62371 9.09423C7.50725 8.91997 7.4451 8.7151 7.4451 8.50546C7.4451 8.22439 7.55676 7.95483 7.75551 7.75609C7.95426 7.55734 8.22381 7.44568 8.50488 7.44568ZM9.85786 15.924L15.9233 9.85754L18.0429 11.9771L11.9774 18.0435L9.85786 15.924Z" fill="black"/>
<path d="M9.85791 15.9239L15.9234 9.85742L18.043 11.977L11.9775 18.0434L9.85791 15.9239Z" fill="white"/>
<path d="M3.83547 13.2859L2.146 3.14646L6.32949 7.32995C6.04709 7.85247 5.9622 8.45917 6.09034 9.03915C6.21847 9.61907 6.55106 10.1336 7.0273 10.4885C7.50354 10.8434 8.09162 11.015 8.684 10.972C9.27636 10.929 9.83349 10.6742 10.2535 10.2542C10.6735 9.8342 10.9283 9.27715 10.9712 8.68474C11.0143 8.09235 10.8426 7.50428 10.4878 7.02803C10.1328 6.55179 9.61836 6.2192 9.03836 6.09107C8.45844 5.96294 7.85174 6.04783 7.32922 6.33022L3.14396 2.14673L13.2861 3.83621L15.1027 8.68206L8.68133 15.1025L3.83547 13.2859Z" fill="white"/>
<path d="M8.50461 7.44556C8.71419 7.44556 8.91915 7.50771 9.09341 7.62417C9.26767 7.74062 9.40349 7.90613 9.48375 8.09978C9.56393 8.29344 9.58488 8.50652 9.54401 8.71211C9.50315 8.91768 9.40219 9.10655 9.25401 9.25472C9.10575 9.4029 8.91697 9.50385 8.71132 9.54472C8.50578 9.58568 8.29269 9.56463 8.09905 9.48446C7.9054 9.4042 7.73988 9.26837 7.62343 9.09411C7.50698 8.91985 7.44482 8.71498 7.44482 8.50534C7.44482 8.22427 7.55648 7.95471 7.75523 7.75597C7.95398 7.55722 8.22354 7.44556 8.50461 7.44556Z" fill="white"/>
</g>
<defs>
<clipPath id="clip0_116_11">
<rect width="20" height="20" fill="white"/>
</clipPath>
</defs>
</svg>
