<svg width="17" height="17" viewBox="0 0 17 17" fill="none" xmlns="http://www.w3.org/2000/svg">
<g clip-path="url(#clip0_2_2)">
<mask id="mask0_2_2" style="mask-type:luminance" maskUnits="userSpaceOnUse" x="0" y="0" width="17" height="17">
<path d="M17 0H0V17H17V0Z" fill="white"/>
</mask>
<g mask="url(#mask0_2_2)">
<path d="M10.1808 16.5382C10.3386 16.5386 10.4949 16.5077 10.6407 16.4473C10.7864 16.3869 10.9187 16.2981 11.0298 16.186L16.1862 11.0303C16.2978 10.9188 16.3863 10.7865 16.4467 10.6407C16.5071 10.4949 16.5381 10.3388 16.5381 10.1809C16.5381 10.0233 16.5071 9.86704 16.4467 9.72135C16.3863 9.57557 16.2978 9.44314 16.1862 9.33162L14.0521 7.19743L12.4178 2.8435C12.344 2.64562 12.2195 2.47059 12.0569 2.33595C11.8942 2.20131 11.699 2.11176 11.4908 2.07629L1.02252 0.331718C0.936454 0.317322 0.8483 0.321848 0.76418 0.344984C0.680055 0.368117 0.601983 0.409304 0.535393 0.465677C0.468803 0.52205 0.415296 0.592255 0.378596 0.671407C0.341895 0.750557 0.322879 0.836754 0.322876 0.924C0.323015 0.957201 0.325778 0.990334 0.331134 1.02309L2.07572 11.4905C2.11041 11.6984 2.19923 11.8936 2.33324 12.0564C2.46724 12.2192 2.64173 12.3438 2.83915 12.4176L7.19309 14.0518L9.33102 16.186C9.44229 16.2981 9.57472 16.387 9.72049 16.4474C9.86644 16.5078 10.0229 16.5387 10.1808 16.5382ZM3.26029 11.2932L1.82424 2.67458L5.3802 6.23056C5.14016 6.67469 5.06801 7.1904 5.17693 7.68338C5.28584 8.1763 5.56854 8.61363 5.97334 8.91529C6.37815 9.21704 6.87801 9.36282 7.38154 9.32635C7.88504 9.28972 8.3586 9.07314 8.71562 8.71614C9.07262 8.35916 9.2892 7.88568 9.32567 7.38212C9.3623 6.8786 9.21636 6.37873 8.91469 5.97393C8.61303 5.56911 8.17574 5.28641 7.68274 5.1775C7.18981 5.06859 6.67411 5.14076 6.22997 5.38079L2.6725 1.82481L11.2933 3.26087L12.8374 7.37984L7.37927 12.8373L3.26029 11.2932ZM7.22912 6.3289C7.40727 6.3289 7.58148 6.38172 7.7296 6.48071C7.87773 6.5797 7.99318 6.72038 8.0614 6.88498C8.12955 7.04959 8.14736 7.23071 8.11262 7.40546C8.07788 7.5802 7.99207 7.74074 7.86612 7.86668C7.7401 7.99263 7.57964 8.07844 7.40483 8.11318C7.23012 8.148 7.049 8.13011 6.8844 8.06196C6.7198 7.99374 6.57911 7.87828 6.48013 7.73016C6.38114 7.58204 6.32831 7.4079 6.32831 7.22971C6.32831 6.9908 6.42322 6.76167 6.59216 6.59274C6.7611 6.42381 6.99021 6.3289 7.22912 6.3289ZM8.37916 13.5355L13.5348 8.37898L15.3364 10.1806L10.1808 15.337L8.37916 13.5355Z" fill="black"/>
<path d="M8.37915 13.5354L13.5348 8.37891L15.3365 10.1805L10.1808 15.337L8.37915 13.5354Z" fill="white"/>
<path d="M3.26015 11.293L1.8241 2.67448L5.38006 6.23044C5.14002 6.67459 5.06787 7.19028 5.17679 7.68326C5.2857 8.1762 5.5684 8.61355 5.9732 8.91521C6.37801 9.21688 6.87787 9.36274 7.3814 9.32619C7.8849 9.28964 8.35846 9.07306 8.71547 8.71606C9.07247 8.35906 9.28905 7.88556 9.32552 7.38202C9.36215 6.87848 9.21621 6.37862 8.91463 5.97381C8.61288 5.56901 8.1756 5.28631 7.6826 5.1774C7.18967 5.06849 6.67398 5.14064 6.22983 5.38067L2.67236 1.82471L11.2932 3.26077L12.8373 7.37974L7.37913 12.8371L3.26015 11.293Z" fill="white"/>
<path d="M7.22895 6.32886C7.40709 6.32886 7.58131 6.38168 7.72943 6.48068C7.87755 6.57966 7.99299 6.72034 8.06122 6.88494C8.12937 7.04956 8.14718 7.23067 8.11244 7.40542C8.07771 7.58016 7.99189 7.7407 7.86594 7.86664C7.73992 7.9926 7.57945 8.0784 7.40465 8.11314C7.22994 8.14796 7.04881 8.13007 6.88422 8.06192C6.71962 7.9937 6.57893 7.87825 6.47994 7.73012C6.38096 7.582 6.32812 7.40786 6.32812 7.22967C6.32812 6.99076 6.42304 6.76163 6.59197 6.59271C6.76091 6.42377 6.99004 6.32886 7.22895 6.32886Z" fill="white"/>
</g>
</g>
<defs>
<clipPath id="clip0_2_2">
<rect width="17" height="17" fill="white"/>
</clipPath>
</defs>
</svg>
